<?xml version="1.0" encoding="UTF-8" standalone="no"?>
<svg
   xmlns:dc="http://purl.org/dc/elements/1.1/"
   xmlns:cc="http://creativecommons.org/ns#"
   xmlns:rdf="http://www.w3.org/1999/02/22-rdf-syntax-ns#"
   xmlns:svg="http://www.w3.org/2000/svg"
   xmlns="http://www.w3.org/2000/svg"
   xmlns:sodipodi="http://sodipodi.sourceforge.net/DTD/sodipodi-0.dtd"
   xmlns:inkscape="http://www.inkscape.org/namespaces/inkscape"
   width="539px"
   height="96px"
   viewBox="0 0 539 96"
   version="1.1"
   id="svg858"
   sodipodi:docname="readme-title.svg"
   inkscape:version="1.0.1 (3bc2e813f5, 2020-09-07)">
  <metadata
     id="metadata862">
    <rdf:RDF>
      <cc:Work
         rdf:about="">
        <dc:format>image/svg+xml</dc:format>
        <dc:type
           rdf:resource="http://purl.org/dc/dcmitype/StillImage" />
        <dc:title></dc:title>
      </cc:Work>
    </rdf:RDF>
  </metadata>
  <sodipodi:namedview
     pagecolor="#ffffff"
     bordercolor="#666666"
     borderopacity="1"
     objecttolerance="10"
     gridtolerance="10"
     guidetolerance="10"
     inkscape:pageopacity="0"
     inkscape:pageshadow="2"
     inkscape:window-width="1862"
     inkscape:window-height="1016"
     id="namedview860"
     showgrid="false"
     inkscape:zoom="1.570328"
     inkscape:cx="284.49611"
     inkscape:cy="108.36961"
     inkscape:window-x="1978"
     inkscape:window-y="27"
     inkscape:window-maximized="1"
     inkscape:current-layer="svg858"
     inkscape:document-rotation="0" />
  <!-- Generator: Sketch 45.1 (43504) - http://www.bohemiancoding.com/sketch -->
  <desc
     id="desc842">Created with Sketch.</desc>
  <defs
     id="defs849">
    <linearGradient
       x1="0%"
       y1="33.6063981%"
       x2="100%"
       y2="33.6063971%"
       id="linearGradient-1">
      <stop
         stop-color="#3023AE"
         offset="0%"
         id="stop844" />
      <stop
         stop-color="#C86DD7"
         offset="100%"
         id="stop846" />
    </linearGradient>
  </defs>
  <g
     id="Page-1"
     stroke="none"
     stroke-width="1"
     fill="none"
     fill-rule="evenodd">
    <g
       id="Group-8">
      <g
         id="Group-2-Copy-2">
        <path
           d="M31.5703506,0.790039063 L0.360389693,32 L64,95.6396103 L127.63961,32 L96.4296494,0.790039063 L31.5703506,0.790039063 Z"
           id="Combined-Shape"
           fill="url(#linearGradient-1)" />
        <path
           d="M99.3537178,17.8594856 L99.3553391,17.8578644 L106.426407,24.9289322 L99.3553391,32 L92.2858925,24.9305534 L92.2842712,24.9321747 L85.2132034,17.8611069 L92.2842712,10.7900391 L99.3537178,17.8594856 Z M14.5025253,32 L21.5735931,24.9289322 L28.6446609,32 L21.5735931,39.0710678 L14.5025253,32 Z M21.5735931,24.9289322 L28.6446609,17.8578644 L35.7157288,24.9289322 L28.6446609,32 L21.5735931,24.9289322 Z M28.6446609,17.8578644 L35.7157288,10.7867966 L42.7867966,17.8578644 L35.7157288,24.9289322 L28.6446609,17.8578644 Z M21.5735931,39.0710678 L28.6446609,32 L35.7157288,39.0710678 L28.6446609,46.1421356 L21.5735931,39.0710678 Z M28.6446609,46.1421356 L35.7157288,39.0710678 L42.7867966,46.1421356 L35.7157288,53.2132034 L28.6446609,46.1421356 Z M42.7867966,60.2842712 L49.8578644,53.2132034 L56.9289322,60.2842712 L49.8578644,67.3553391 L42.7867966,60.2842712 Z M49.8578644,67.3553391 L56.9289322,60.2842712 L64,67.3553391 L56.9289322,74.4264069 L49.8578644,67.3553391 Z M56.9289322,74.4264069 L64,67.3553391 L71.0710678,74.4264069 L64,81.4974747 L56.9289322,74.4264069 Z M64,67.3553391 L71.0710678,60.2842712 L78.1421356,67.3553391 L71.0710678,74.4264069 L64,67.3553391 Z M71.0710678,60.2842712 L78.1421356,53.2132034 L85.2132034,60.2842712 L78.1421356,67.3553391 L71.0710678,60.2842712 Z M64,53.2132034 L71.0710678,46.1421356 L78.1421356,53.2132034 L71.0710678,60.2842712 L64,53.2132034 Z M56.9289322,46.1421356 L64,39.0710678 L71.0710678,46.1421356 L64,53.2132034 L56.9289322,46.1421356 Z M49.8578644,39.0710678 L56.9289322,32 L64,39.0710678 L56.9289322,46.1421356 L49.8578644,39.0710678 Z M42.7867966,32 L49.8578644,24.9289322 L56.9289322,32 L49.8578644,39.0710678 L42.7867966,32 Z M49.8578644,24.9289322 L56.9289322,17.8578644 L64,24.9289322 L56.9289322,32 L49.8578644,24.9289322 Z M56.9289322,17.8578644 L64,10.7867966 L71.0710678,17.8578644 L64,24.9289322 L56.9289322,17.8578644 Z M64,24.9289322 L71.0710678,17.8578644 L78.1421356,24.9289322 L71.0710678,32 L64,24.9289322 Z M71.0710678,32 L78.1421356,24.9289322 L85.2132034,32 L78.1421356,39.0710678 L71.0710678,32 Z M85.2132034,46.1421356 L92.2842712,39.0710678 L99.3553391,46.1421356 L92.2842712,53.2132034 L85.2132034,46.1421356 Z M92.2842712,39.0710678 L99.3553391,32 L106.426407,39.0710678 L99.3553391,46.1421356 L92.2842712,39.0710678 Z M99.3553391,32 L106.426407,24.9289322 L113.497475,32 L106.426407,39.0710678 L99.3553391,32 Z"
           id="path852"
           fill="#FFFFFF" />
      </g>
    </g>
  </g>
  <g
     aria-label="Snabbdom"
     id="text866"
     style="font-style:normal;font-weight:normal;font-size:80.2879px;line-height:50.1801px;font-family:sans-serif;letter-spacing:0.3px;word-spacing:0px;fill:#000000;fill-opacity:1;stroke:none;stroke-width:2.00719">
    <path
       d="m 181.33575,59.746402 q 0,-3.332262 -2.35219,-5.0964 -2.35218,-1.803342 -8.46786,-3.763496 -6.11568,-1.999357 -9.68316,-3.920308 -9.72237,-5.253212 -9.72237,-14.152311 0,-4.625963 2.58741,-8.232646 2.6266,-3.645886 7.48778,-5.684446 4.90039,-2.03856 10.97687,-2.03856 6.11568,0 10.89845,2.234575 4.78278,2.195373 7.40938,6.23329 2.66581,4.037917 2.66581,9.17352 h -11.76092 q 0,-3.920308 -2.4698,-6.076477 -2.46979,-2.195373 -6.93894,-2.195373 -4.31234,0 -6.70373,1.842545 -2.39138,1.803342 -2.39138,4.782775 0,2.783419 2.78341,4.665167 2.82263,1.881747 8.27185,3.528277 10.03599,3.018637 14.62275,7.487787 4.58676,4.469151 4.58676,11.133674 0,7.409382 -5.60604,11.643314 -5.60604,4.19473 -15.09318,4.19473 -6.58612,0 -11.99614,-2.391388 -5.41003,-2.430591 -8.27185,-6.62532 -2.82263,-4.194729 -2.82263,-9.722363 h 11.80013 q 0,9.447941 11.29049,9.447941 4.19473,0 6.54691,-1.685732 2.35219,-1.724935 2.35219,-4.782775 z"
       style="font-style:normal;font-variant:normal;font-weight:normal;font-stretch:normal;font-family:Roboto;-inkscape-font-specification:Roboto;fill:#000000;fill-opacity:1;stroke-width:2.00719"
       id="path914" />
    <path
       d="m 211.11646,32.304247 0.35283,4.900385 q 4.54755,-5.684446 12.19215,-5.684446 6.74293,0 10.03599,3.959511 3.29306,3.95951 3.37147,11.839329 V 74.721977 H 225.73921 V 47.593448 q 0,-3.606684 -1.56813,-5.21401 -1.56812,-1.646529 -5.21401,-1.646529 -4.78277,0 -7.17416,4.07712 v 29.911948 h -11.32969 v -42.41773 z"
       style="font-style:normal;font-variant:normal;font-weight:normal;font-stretch:normal;font-family:Roboto;-inkscape-font-specification:Roboto;fill:#000000;fill-opacity:1;stroke-width:2.00719"
       id="path916" />
    <path
       d="m 270.57391,74.721977 q -0.78406,-1.52892 -1.13689,-3.802698 -4.11632,4.58676 -10.70244,4.58676 -6.23329,0 -10.34961,-3.606683 -4.07712,-3.606683 -4.07712,-9.095114 0,-6.74293 4.97879,-10.349613 5.01799,-3.606683 14.46593,-3.645886 h 5.21401 v -2.430591 q 0,-2.940231 -1.52892,-4.704369 -1.48972,-1.764139 -4.74357,-1.764139 -2.86183,0 -4.50835,1.372108 -1.60733,1.372108 -1.60733,3.763496 h -11.32969 q 0,-3.68509 2.27378,-6.821336 2.27378,-3.136246 6.4293,-4.900385 4.15553,-1.803341 9.33034,-1.803341 7.84061,0 12.42737,3.959511 4.62596,3.920307 4.62596,11.055267 v 18.386244 q 0.0392,6.037274 1.68574,9.134317 v 0.666452 z m -9.36954,-7.879818 q 2.509,0 4.62597,-1.097687 2.11696,-1.136889 3.13624,-3.018636 v -7.291773 h -4.23393 q -8.50707,0 -9.05591,5.880462 l -0.0392,0.666452 q 0,2.116966 1.48971,3.489074 1.48972,1.372108 4.07712,1.372108 z"
       style="font-style:normal;font-variant:normal;font-weight:normal;font-stretch:normal;font-family:Roboto;-inkscape-font-specification:Roboto;fill:#000000;fill-opacity:1;stroke-width:2.00719"
       id="path918" />
    <path
       d="m 327.63996,53.905143 q 0,10.1928 -4.35154,15.91645 -4.35155,5.684446 -12.15296,5.684446 -6.89974,0 -11.01606,-5.292416 l -0.50964,4.508354 h -10.1928 V 14.50605 h 11.32969 v 21.600896 q 3.9203,-4.58676 10.3104,-4.58676 7.76221,0 12.15296,5.723649 4.42995,5.684446 4.42995,16.034059 z m -11.32969,-0.823265 q 0,-6.429304 -2.03856,-9.369535 -2.03856,-2.979434 -6.07648,-2.979434 -5.41002,0 -7.44858,4.429948 v 16.739714 q 2.07776,4.469151 7.52699,4.469151 5.48843,0 7.21336,-5.410025 0.82327,-2.587403 0.82327,-7.879819 z"
       style="font-style:normal;font-variant:normal;font-weight:normal;font-stretch:normal;font-family:Roboto;-inkscape-font-specification:Roboto;fill:#000000;fill-opacity:1;stroke-width:2.00719"
       id="path920" />
    <path
       d="m 373.1019,53.905143 q 0,10.1928 -4.35154,15.91645 -4.35154,5.684446 -12.15295,5.684446 -6.89975,0 -11.01607,-5.292416 l -0.50964,4.508354 H 334.8789 V 14.50605 h 11.32969 v 21.600896 q 3.92031,-4.58676 10.31041,-4.58676 7.76221,0 12.15295,5.723649 4.42995,5.684446 4.42995,16.034059 z m -11.32969,-0.823265 q 0,-6.429304 -2.03856,-9.369535 -2.03856,-2.979434 -6.07648,-2.979434 -5.41002,0 -7.44858,4.429948 v 16.739714 q 2.07776,4.469151 7.52699,4.469151 5.48843,0 7.21337,-5.410025 0.82326,-2.587403 0.82326,-7.879819 z"
       style="font-style:normal;font-variant:normal;font-weight:normal;font-stretch:normal;font-family:Roboto;-inkscape-font-specification:Roboto;fill:#000000;fill-opacity:1;stroke-width:2.00719"
       id="path922" />
    <path
       d="m 378.57672,53.199488 q 0,-9.918379 4.42995,-15.798841 4.46915,-5.880461 12.19216,-5.880461 6.19408,0 10.232,4.625963 V 14.50605 h 11.36889 v 60.215927 h -10.232 l -0.54884,-4.508354 q -4.23394,5.292416 -10.89846,5.292416 -7.48779,0 -12.03534,-5.880462 -4.50836,-5.919665 -4.50836,-16.426089 z m 11.32969,0.823264 q 0,5.958868 2.07776,9.134317 2.07777,3.17545 6.03728,3.17545 5.25321,0 7.40938,-4.429948 V 45.162857 q -2.11697,-4.429948 -7.33098,-4.429948 -8.19344,0 -8.19344,13.289843 z"
       style="font-style:normal;font-variant:normal;font-weight:normal;font-stretch:normal;font-family:Roboto;-inkscape-font-specification:Roboto;fill:#000000;fill-opacity:1;stroke-width:2.00719"
       id="path924" />
    <path
       d="m 424.19547,53.121082 q 0,-6.311696 2.43059,-11.251284 2.43059,-4.939588 6.97814,-7.6446 4.58676,-2.705012 10.62404,-2.705012 8.58547,0 13.9955,5.253212 5.44922,5.253213 6.07647,14.26992 l 0.0784,2.901028 q 0,9.761566 -5.44923,15.681231 -5.44923,5.880462 -14.62275,5.880462 -9.17352,0 -14.66195,-5.880462 -5.44922,-5.880461 -5.44922,-15.994855 z m 11.32969,0.823264 q 0,6.037274 2.27377,9.251926 2.27378,3.17545 6.50771,3.17545 4.11633,0 6.42931,-3.136246 2.31298,-3.17545 2.31298,-10.114394 0,-5.919665 -2.31298,-9.173521 -2.31298,-3.253855 -6.50771,-3.253855 -4.15553,0 -6.42931,3.253855 -2.27377,3.214653 -2.27377,9.996785 z"
       style="font-style:normal;font-variant:normal;font-weight:normal;font-stretch:normal;font-family:Roboto;-inkscape-font-specification:Roboto;fill:#000000;fill-opacity:1;stroke-width:2.00719"
       id="path926" />
    <path
       d="m 482.35921,32.304247 0.35283,4.743573 q 4.50835,-5.527634 12.19216,-5.527634 8.19344,0 11.25128,6.468508 4.46915,-6.468508 12.741,-6.468508 6.89974,0 10.27121,4.037917 3.37146,3.998714 3.37146,12.074548 V 74.721977 H 521.17026 V 47.671854 q 0,-3.606683 -1.41131,-5.253213 -1.41131,-1.685732 -4.97879,-1.685732 -5.0964,0 -7.05656,4.861182 l 0.0392,29.127886 h -11.32969 v -27.01092 q 0,-3.685089 -1.45052,-5.331619 -1.45051,-1.646529 -4.93958,-1.646529 -4.82198,0 -6.97815,3.998714 v 29.990354 h -11.32969 v -42.41773 z"
       style="font-style:normal;font-variant:normal;font-weight:normal;font-stretch:normal;font-family:Roboto;-inkscape-font-specification:Roboto;fill:#000000;fill-opacity:1;stroke-width:2.00719"
       id="path928" />
  </g>
</svg>
